<svg xmlns="http://www.w3.org/2000/svg" viewBox="0 0 914.23 792.34">
  <path fill="#7db4da" d="M167.84,687.61l-20-34.56Q81.72,538.69,15.6,424.33c-4.92-8.5-9.75-17.06-14.75-25.51a4.72,4.72,0,0,1,0-5.46q43-74.1,85.81-148.27,44.1-76.34,88.13-152.7Q200.54,47.84,226.3,3.3C227.6,1,229.13-.29,231.85.05a18.93,18.93,0,0,0,2.5,0H609.76c6.29,0,6.46,0,5.48,6.42-4.5,29.22-9.18,58.41-13.66,87.64-4.22,27.58-8.22,55.2-12.44,82.79-4.38,28.73-8.9,57.43-13.36,86.15-2.85,18.38-5.78,36.74-8.43,55.15-.62,4.29-1.91,6-6.73,6q-91.72-.27-183.45,0c-5.19,0-5.52-1.85-4.88-5.91q7.48-47.21,14.79-94.42c3.13-20.35,6-40.74,9.13-61.1.39-2.56-.36-3.43-3-3.83-21.37-3.19-42.7-6.56-64.05-9.86l-60.56-9.35c-3.61-.56-7.31-.77-10.82-1.71-3.8-1-4.87.53-5.4,3.93-5.9,38.2-12,76.38-17.84,114.6-5.52,35.91-10.78,71.87-16.3,107.79-5.49,35.74-11.23,71.45-16.73,107.2-5.19,33.79-10.14,67.6-15.29,101.4q-8.48,55.59-17.12,111.16A24.82,24.82,0,0,1,167.84,687.61Z" />
  <path fill="#0c61b0" d="M747.57,106l25.75,44.55Q843,271.2,912.82,391.82c1.8,3.12,1.93,5.29.08,8.48Q800.7,594.17,688.75,788.21c-1.7,2.95-3.49,4.12-7,4.12q-188.68-.15-377.39,0c-4.16,0-4.92-1.16-4.32-5q10.69-68.43,21.18-136.88,9.72-63.27,19.36-126.55,3.92-25.57,7.85-51.14c.4-2.66,1.44-3.79,4.51-3.78q93.46.17,186.94,0c3.51,0,4,1.08,3.55,4.19Q536.59,517.08,529.9,561c-3.47,22.54-6.87,45.08-10.53,67.58-.6,3.64,1.39,3.84,3.71,4.19q37.27,5.72,74.56,11.38c20.06,3.07,40.14,6,60.16,9.38,4,.65,4.87-.5,5.37-4,2.37-16.65,4.51-33.35,7.52-49.88,8.32-45.83,14.53-92,21.72-138Q703.78,389,715,316.22q10.68-69.29,21.2-138.6,5.17-33.81,10.34-67.62C746.71,109,747,108.08,747.57,106Z" />
</svg>