<svg viewBox="0 0 200 200" version="1.1" 
  xmlns="http://www.w3.org/2000/svg" width="800" height="800">
  <path fill="#ffba00" d="M151.7 48.8l-14.3 8.26v33.03l-42.91 24.78V81.83l-14.3 8.26v82.58l14.3-8.26v-33.03l42.91-24.77v33.03l14.3-8.26V48.8z"></path>
  <path fill="#ff3900" d="M18.64 33.03L4.33 41.29l71.52 41.29 14.3-8.26-28.6-16.52 42.91-24.77 28.6 16.52 14.31-8.26L75.85 0l-14.3 8.26 28.6 16.51-42.91 24.78-28.6-16.52z"></path>
  <path fill="#009e8e" d="M0 131.38l14.3 8.26v-33.03l42.91 24.77v33.03l14.3 8.26V90.09l-14.3-8.26v33.04L14.3 90.09V57.06L0 48.8v82.58z"></path>
</svg>