<svg xmlns="http://www.w3.org/2000/svg" viewBox="0 0 296 296">
  <path d="M296,64V96h-7.81l-.43,8.08H280V88.35H264.23v7.44l7.57.44c.16,2.73.3,5.13.45,7.71h7.84c0,2.71-.11,5.42-.16,8.13l.14-.15h-7.86c-.18,3.09-.32,5.49-.45,7.85H256.27v-7.55l7.35-.47V104.4H239.91c.14,2.89.25,5.36.36,7.83l-16.33-.15q0-4.06,0-8.14h8.21V96.1h7.48V80.25h-7.33c0,5.5,0,10.74,0,16h-8.21v7.86h-7.72v7.85h7.75v7.77h16V112.1h8v24h-8v8l-15.95,0,.16.13-.36-8.29h7.76v-7.59h-7.62v7.74H191.93V119.81h-23.7V112h15.43V96.08H167.93V87.92h8v-24h8.28V88.16h7.54c.19,2.72.35,5.12.51,7.49h15.5V88.18l-7.91-.4V71.9h-7.58V40.21l7.65-.47V31.93h8.15v-16l-.14.14h8.14l-.15-.14v7.84l7.75.48v7.57l-7.59.42v7.83h-8v8h-7.7v16h15.35v7.68l-7.34.46v7.51h15.4c.16-2.62.31-5,.46-7.57l7.69-.44V63.92h24.15V80.06h-7.76V95.63h7.62V79.91h31.68v-8H272.31V64Zm-95.91,63.6h7.58v-7.22h-7.58Zm-.49-15.69v-7.58h-7.22v7.58Z M296,200v16h-7.69v24H296v8H279.74V232.26H264.31v7.94h7.46v7.64l-7.45.33v15.92h7.74l-.14-.14c0,2.7,0,5.4,0,8.11l.14-.14H239.93l.14.14v-7.73h-8.14v7.73l.14-.14h-7.86c-.17-2.89-.31-5.28-.46-7.75l-7.83-.43v-7.82h7.75V240.07h-7.75V232.2l8.15-.45v-7.82l-.14.14h8.14v-8.14l-.14.14,8.14-.15v7.74h7.86v-7.74h15.85c.19,3.05.33,5.44.47,7.7h15.88V208.18l7.64-.37c.18-2.73.33-5.13.5-7.81Zm-40.37,55.79V232.41H232.28v23.38Z M104.08,88.07v-8h15.65V72.25H104.35v-8l7.41-.46V40.37h-7.68V55.74H96.23V47.91H87.94l.14.14V40.26l-7.82-.45c-.16-2.54-.33-4.93-.51-7.64H72.28c-.16-2.69-.31-5.09-.49-7.93L64,23.8V0h56c0,2.69,0,5.38-.07,8.07l.14-.14H104.21c-.18,3-.31,5.44-.46,8.15H95.94V8.32H88.35v7.62h7.74v8.3H88.27v7.44H103.8l.45-7.42h7.53l.5,7.81h7.79l-.14-.14v24h8.15v32H103.93Z M136,296q0-8,.08-16.07l-.15.14h31.82c.19,2.84.35,5.24.51,7.57h7.66V271.93h8.15v7.74h7.86v-7.74h8.15v15.71h7.85V271.92h7.85c.19,3.05.33,5.44.47,7.74h15.82v-7.73l-.14.14h8.14l-.14-.14v8.27h8.19v7.52h7.67c.16-2.66.31-5.06.46-7.35h7.89v7.35h23.95V272H296v24H240v-7.68H224V296H192v-7.67h-8V296H160v-7.68H144V296Z M56,0V56H0V0ZM8.36,8.22V47.6H47.73V8.22Z M0,240H56v56H0Zm8.22,47.65H47.6V248.27H8.22Z M128,0h40q0,8,.08,16.07H152.35v7.85h15.72v8h8v8.14H160.21c-.17-3-.31-5.43-.45-7.69h-7.68V56.07h-8.16V31.93h-24l.14.14V7.93l-.14.14,8.12-.15c0,2.6,0,5.2,0,8h8c0,2.58,0,5.16,0,7.76h7.59V16.06h-7.74v-8h-8Z M296,56H240V0h56Zm-47.78-8.35H287.6V8.27H248.22Z M0,72H15.73l.47-7.7H39.91v7.76l.14-.14H24.36V87.75l7.56.46v7.86l.15-.14H23.93v8.14l.14-.15L0,104V88H15.65V80H0Z M176,0h32q0,8-.07,16.07l.14-.14h-8.32V8.27H184.22l-.49,7.8h-7.81Q176,8,176,0Z M296,136H272.37v-7.75l7.7-.48V111.92l-.14.15L296,112v8h-7.67v8H296Z M296,192h-7.75c-.15-2.63-.29-5-.45-7.89H272.08v-8.18l-.15.14h16.14v-8.14l-.14.15L296,168Z M0,200H7.69v32H0Z M0,112H7.75l.45,7.93h7.87V128H0Z M232,0V15.93H215.92l.15.14V8.2L224,7.75V0Z M80,296v-7.69h24V296Z M287.92,160.07v-7.83l-7.6-.42V144H296v16Z M80.08,152.07v-7.82l7.66-.44.5-7.65H111.6V120.24l-7.52-.44v-7.87l-.15.14h16.22v15.86h7.93v16.14H112.35v7.85h15.72v8.16h-16v7.8l.14-.16-8,.52c-.17,2.63-.32,5-.47,7.43H96.19c-.16-2.72-.3-5.12-.45-7.82H88.29v-7.66l7.63-.44v-7.81h7.76v-7.59H96.06v7.74l-16.13-.16Z M32.08,192.07V168.26l7.85-.47V151.93l8.13.16-.14-.14v7.72H71.75l.46-7.6h7.87l-.15-.14v23.72h-8v-7.37H64.21l-.48,7.8H55.94v-7.76H48.35v7.62h7.74l-.16,8.13.14-.14H40.21l-.46,8H31.93Z M87.92,119.93v7.83l-7.67.42-.45,7.73H71.94l.14.14V120.14H48.29v-8h15.5v-16h8.28l-.14-.15v8.23h16v7.91l.14-.14H80.34v8.14h7.73Z M24.07,151.92H16.24l-.42-7.64-7.56-.53v-7.61H31.79v-7.9l-7.71-.43v-7.88l-.15.14h8.14v-8.14l-.14.15h8.14v40l-8.14-.15.14.15v-7.73H23.93v7.73Z M72.08,80.07V72.26l-7.8-.46V40.26h7.46V63.72l8.18.48V80.07l.15-.14H71.93Z M79.92,80.07h16v8l.15-.14H88.21l-.47,8H71.93l.14.15c0-2.72,0-5.43,0-8.15l-.15.14h8.14V79.93Z M39.91,72.06l8.15,0L47.92,72v7.77l7.82.51v7.39H40.05V71.92Z M71.94,135.91v7.74H64.32v-7.59h7.76Z M55.83,128.39v7.31H48.25v-7.31Z M104.08,111.93H95.93l.14.15v-8.14h8l-.15,8.14Z M24.08,112.07c0-2.72,0-5.43,0-8.15l-.14.15h8.14l-.15-.14c0,2.72,0,5.43,0,8.15l.14-.15H23.93Z M55.76,103.8H48.33V96.28h7.43Z M31.92,96.07h7.74v7.86H31.92l.15.14V95.93Z M95.92,88.07h8.16l-.15-.14.15,8.14h-8V87.93Z M48.06,152.09v-7.74h7.62v7.59H47.92Z M72.08,87.93H64.34V80.07h7.74l-.15-.14v8.14Z M95.93,111.92v8h-8l.15.14v-8.14l-.14.14h8.14Z M48.06,72.09V64.35h7.62v7.59H47.92Z M87.94,47.91v7.74H80.32V48.06h7.76Z M88.07,231.92h-16c0,2.85,0,5.4,0,8l.14-.16-7.91.37-.56-7.91H40.08v-8.25l-.15.14H63.67v-32H55.92l.15-8.14-.14.14h16.2v40.08h15.8v7.92Z M112.07,279.92H104.2V248.28l-8.12-.48v-7.87l-.15.14H111.8c.17,2.91.3,5.3.44,7.85h7.83v7.74h7.86v-7.74l8.14.15-.14-.14v16.31H120.16l-.36,7.54-7.87.49v7.8Z M23.94,192.08h8.14l-.15-.14v8H48.07c0,2.72-.11,5.43-.16,8.14l.14-.14H39.93v16.15l.15-.14H32.24l-.44-8H23.94l.14.15v-7.78l-7.82-.51v-7.53h7.83v-8.3Z M72.08,256.06l.15-16.33-.14.15h7.7c.13,2.79.24,5.07.37,7.88h7.55c.19,2.9.34,5.31.51,8l7.39.37v15.75H87.94l.14.14v-7.8l-7.83-.43c-.15-2.47-.29-4.86-.47-7.91H71.94Z M71.94,255.91v23.71H64.32V256.06h7.76Z M23.63,175.83H8.33V160.31H16v7.56h7.65Z M127.92,279.93v7.74H112.07v-7.75l-.14.15h16.14Z M24.09,191.94H8.37v-7.62H23.94v7.76Z M23.94,215.91v15.72H16.32V216.06h7.76Z M31.93,151.92v7.74H24.07v-7.74l-.14.15h8.14Z M15.93,120.07v-8h8.15l-.15-.14v8.14l.15-.14Z M96.08,239.93h-8v-8l-.14.15h8v8Z M87.94,271.91v7.74H80.32v-7.59h7.76Z M136.08,279.93h-8.16l.15.14v-7.73h7.86v7.73Z M135.93,167.92h15.92V136.3h8v15.48h16.06v16.29l.15-.14H167.8v-7.71h-7.55v23.49h7.56l.44-7.64h7.82l-.15-.14v15.81l-8,.47v7.85l.14-.14h-7.72v15.83l7.59.46v7.86l.15-.14h-7.73v8.14h7.73l-.14-.14.15,8.14h-7.74v7.86h7.74c0,2.72,0,5.43,0,8.15h-8.25v15.7H152V240.29h-7.82c-.15,2.67-.29,5.07-.44,7.64h-7.82l.14.14V232.2l7.85-.44v-7.83h7.74v-7.86h-7.74V200.2l-8-.47Zm15.77,24v-7.57h-7.31v7.57Z M184.08,168.07v-7.83l7.85-.43v-7.88h7.81c.16,2.72.3,5.12.46,7.87l7.57.38v7.63l-7.66.35v39.55h-8V192.27l-8-.47V175.93l-.15.14h7.73v-8.14h-7.73Z M288.07,159.93l-.14,8.15.14-.15H271.93v8.14l.15-.14h-7.84c-.14-2.5-.27-4.88-.42-7.59h-7.57c-.15,2.33-.29,4.71-.47,7.58h-7.85l.14.15v-8.14h-8.14l.15.14v-7.95H255.8c.14-2.88.24-5.28.36-7.89h7.65c.11,2.36.21,4.77.35,7.7Z M216,200.08h7.77c.18-2.76.34-5.17.51-7.82h7.53v7.82h8.31l-.14-.15v8.14l.14-.15h-8.14v8.15l.14-.14h-8.14v8.14l.14-.14H207.93l.15.14V208.26l8-.47v-7.85Z M192.07,152.07h-7.81c-.16-2.7-.3-5.1-.46-8H168.26V128.4h15.5c.13,2.21.27,4.6.44,7.53h7.87Z M176.08,224.07v-7.74h23.84v7.74l.15-.14h-7.84c-.19,3-.33,5.4-.48,7.74h-7.57c-.15-2.71-.28-5.1-.43-7.74h-7.82Z M247.93,175.92v7.83l7.73.43v7.57l-7.74.48v7.84l.15-.14h-8.14l.14.15q0-12.08,0-24.15l-.15.14h8.14Z M216.09,199.94h-7.76V176.3h15.43v7.52l-7.81.34v15.92Z M224.05,151.92H208.39v-7.7h15.88l-.15-.14-.21,8Z M199.92,224.07h8.16l-.15-.14.15,16.14h-8V223.93Z M175.92,168.07h8.16l-.15-.14v8.14l.15-.14h-8.16l.15.14v-8.14Z M240.08,175.93h-7.74v-7.86h7.74l-.15-.14v8.14Z M239.93,143.93h8.14v7.73h-8.14Z M256.28,136.24v-8h7.33v7.86h-7.49Z M167.91,200.06h7.74v7.62h-7.59v-7.76Z M167.92,224.07h8.16l-.15-.14v8h-8l.14.14v-8.14Z M223.91,152.06h7.74v7.62h-7.59v-7.76Z M247.93,144.07v-8.14l8.34.3-.15-.13c0,2.44,0,4.89,0,8Z M215.93,48.07V39.93h16.14V64.07h-7.91v-16Z M271.8,192.24v7.43h-7.52v-7.43Z M247.92,200.07h7.74v7.85h-7.73l.14.15v-8.14Z M248.07,216.07h-8.14l.14-8.15-.14.15h8.14l-.14-.15C248,210.64,248,213.35,248.07,216.07Z M272.06,264.09v-7.75h15.61V264H271.92Z M271.91,272.06h7.74v7.62h-7.59c0-2.6,0-5.18,0-7.76Z M168,24V16h8v8Z M127.93,128.07v-7.81l7.79-.46v-7.67h-7.51v-7.84l-7.94-.52v-7.5h15.54V71.93h8.26v7.83l7.68.42c.15,2.47.29,4.86.46,7.75h7.86v8h8v7.81l-8,.47v15.64h-7.82v7.87l-8,.49c-.13,2.55-.25,4.95-.38,7.56h-7.61v-7.7Zm16.3-16.34h7.45v-7.37h-7.45Z M135.93,160.07v-8.14h7.73v8.14Z M136.07,152.07h-8.14v-8.14h8.14Z M127.93,159.93h8.14v8.14h-8.14Z M151.93,64.07V55.93h7.83c.14-2.5.27-4.89.42-7.6h7.57l.47,7.6h7.85v8.14Z M175.93,32.07V23.93h24.14v8.14Z M175.93,56.07V39.93h7.74V56.07Z M207.93,47.93h8.14v7.73h-8.14Z M168.07,88.07h-8.14V72.35h8.14Z M143.93,63.93h8.14v8.14h-8.14Z M247.83,240.39v7.31h-7.58v-7.31Z M191.93,256.08l16.14-.15v16.14h-8.14v-8.15h-8l.14.15v-8.14Z M208,240h8.16l-.15-.14.15,16.14h-8V223.93Z M103.93,104.07V95.93h7.73v8.14Z M144.07,55.93v8.14h-8.14V55.93Z M127.93,56.07V48.34h8.14v7.73Z M167.93,255.93l16.14.15-.14-.15v8.14l.14-.15h-8v8.15h-8.14Z M192.07,272.07h-8.14c0-2.72.09-5.43.14-8.15l-.14.15h8.14l-.14-.15Z M39.68,39.9H16.41V16.37H39.68Z M39.65,279.77H16.26V256.39H39.65Z M279.79,16.25V39.66H256.3V16.25Z M96.07,207.92H80.35V184.34h23.57v7.73l.15-.14H88.31v7.89l7.62.42v7.83Z M127.68,231.79h-15.4V216.25h7.44c.15,2.26.31,4.65.51,7.52l7.45.41Z M111.92,192v16h-8l.14.15V191.93l-.15.14,8.14,0Z M120.28,184.24c-.07-2.77-.13-5.53-.19-8.3l-.14.14h7.69v8h-7.52Z M112.06,192.09v-7.86h8.21l-.15-.13c0,2.44,0,4.89,0,7.84h-8.21Z M103.93,207.92v7.74H96.07v-7.74l-.14.15h8.14Z M144.07,215.93v8.14h-7.73v-8.14Z M128.07,248.07h-8.14v-7.73h8.14Z M120.09,175.94h-7.86v-8.21l-.13.15h7.84v8.21Z M56.07,191.93v8.14H47.93v-8.14Z M47.91,208.06h7.74v7.62H48.06v-7.76Z M167.93,248.07v-8.14h16.14v8.14Z M184.07,256.08l-.14-8.15h8v8.15l.14-.15h-8.14Z" />
</svg>